<svg width="24" height="24" viewBox="0 0 24 24" fill="none" xmlns="http://www.w3.org/2000/svg">
<path d="M5.25038 12.0999C5.25038 11.8946 5.3294 11.6977 5.47005 11.5525C5.6107 11.4073 5.80147 11.3257 6.00038 11.3257L16.1929 11.3257L15.2179 10.327C15.0767 10.1813 14.9973 9.98353 14.9973 9.77736C14.9973 9.57119 15.0767 9.37347 15.2179 9.22768C15.3591 9.0819 15.5507 9 15.7504 9C15.9501 9 16.1417 9.0819 16.2829 9.22768L18.5329 11.5503C18.637 11.6591 18.7074 11.7974 18.7355 11.9476C18.7635 12.0978 18.7478 12.2531 18.6904 12.3941C18.6341 12.5355 18.5386 12.6565 18.4158 12.742C18.293 12.8274 18.1485 12.8734 18.0004 12.8741L6.00038 12.8741C5.80147 12.8741 5.6107 12.7926 5.47005 12.6474C5.3294 12.5022 5.25038 12.3053 5.25038 12.0999Z" fill="#1C83E5"/>
<path d="M14.9999 14.4225C14.9993 14.3206 15.0182 14.2196 15.0555 14.1252C15.0929 14.0309 15.1478 13.9451 15.2174 13.8728L17.4674 11.5502C17.6086 11.4044 17.8001 11.3225 17.9999 11.3225C18.0988 11.3225 18.1967 11.3426 18.288 11.3817C18.3794 11.4207 18.4624 11.478 18.5324 11.5502C18.6023 11.6224 18.6578 11.7081 18.6956 11.8024C18.7335 11.8967 18.7529 11.9978 18.7529 12.0999C18.7529 12.306 18.6736 12.5038 18.5324 12.6495L16.2824 14.9721C16.2126 15.0447 16.1297 15.1023 16.0383 15.1416C15.9469 15.1809 15.8489 15.2011 15.7499 15.2011C15.6509 15.2011 15.5528 15.1809 15.4614 15.1416C15.37 15.1023 15.2871 15.0447 15.2174 14.9721C15.1478 14.8998 15.0929 14.814 15.0555 14.7197C15.0182 14.6253 14.9993 14.5243 14.9999 14.4225Z" fill="#1C83E5"/>
</svg>
